<svg width="314" height="80" viewBox="0 0 314 80" fill="none" xmlns="http://www.w3.org/2000/svg">
<g clip-path="url(#clip0_291_4326)">
<path d="M8.26001 63.6322C12.9313 69.9916 19.3791 74.8274 26.7921 77.531C34.2052 80.2347 42.2523 80.6854 49.9209 78.8265C57.5895 76.9676 64.537 72.8822 69.8892 67.0842C75.2414 61.2862 78.7592 54.0347 80 46.2422C69.0079 51.1897 57.1811 54.0192 45.14 54.5822L8.26001 63.6322Z" fill="url(#paint0_linear_291_4326)"/>
<path d="M49.26 32.8222L30.99 37.0322C21.6125 41.7078 11.5324 44.8157 1.15002 46.2322H1L21 58.3122L45.19 54.5622C57.5321 48.7372 68.5049 40.3714 77.39 30.0122C77.87 29.4422 78.39 28.8722 78.82 28.2922L49.26 32.8222Z" fill="url(#paint1_linear_291_4326)"/>
<path d="M2.20001 28.3222C11.1755 32.9477 20.9173 35.9025 30.95 37.0422L53.95 26.9622L65.1 8.49221C59.9857 4.49228 53.9746 1.79739 47.5859 0.640311C41.1971 -0.516766 34.6227 -0.101245 28.4305 1.85094C22.2382 3.80313 16.6142 7.2333 12.0442 11.8453C7.47418 16.4572 4.09553 22.1123 2.20001 28.3222Z" fill="url(#paint2_linear_291_4326)"/>
<path d="M44.51 54.6122C43.17 54.6122 41.82 54.6922 40.51 54.6922C26.8908 54.7094 13.4234 51.8326 1 46.2522C1.99568 52.5426 4.4853 58.5026 8.26001 63.6322C21.0328 63.0978 33.5707 60.0211 45.14 54.5822L44.51 54.6122Z" fill="url(#paint3_linear_291_4326)"/>
<path d="M50.49 24.0922C44.526 29.1826 37.9644 33.5279 30.95 37.0322C34.1108 37.3893 37.2891 37.5696 40.47 37.5722C41.64 37.5722 42.81 37.5722 43.98 37.5022C56.0971 37.0114 67.9606 33.8783 78.74 28.3222C76.3478 20.4738 71.5998 13.5509 65.14 8.49222C60.846 14.2158 55.9329 19.4475 50.49 24.0922Z" fill="url(#paint4_linear_291_4326)"/>
</g>
<g clip-path="url(#clip1_291_4326)">
<path fill-rule="evenodd" clip-rule="evenodd" d="M259.43 53.04C258.84 53.1503 258.241 53.2072 257.64 53.21C256.869 53.2265 256.101 53.0941 255.38 52.82C254.737 52.5542 254.207 52.0735 253.88 51.46C253.477 50.6087 253.291 49.6707 253.34 48.73V26.53H261.96V16.98H253.34V5.98001H240.63V16.98H234.36V26.53H240.63V50.41C240.512 53.0272 241.165 55.6215 242.51 57.87C243.794 59.847 245.665 61.3719 247.86 62.23C250.426 63.2042 253.17 63.6201 255.91 63.45C257.322 63.4203 258.729 63.2562 260.11 62.96C261.27 62.69 262.11 62.46 262.8 62.26L260.8 52.8L259.43 53.04ZM209.72 34.53L218.02 36.2C222.47 37.11 225.77 38.59 227.96 40.6C229.049 41.6202 229.905 42.8626 230.471 44.243C231.037 45.6233 231.299 47.1093 231.24 48.6C231.287 51.4605 230.356 54.2513 228.6 56.51C226.702 58.8793 224.211 60.7043 221.38 61.8C218.024 63.1249 214.438 63.7707 210.83 63.7C204.763 63.6933 199.937 62.4267 196.35 59.9C194.62 58.7205 193.163 57.1852 192.075 55.3968C190.986 53.6084 190.293 51.6082 190.04 49.53L202.54 48.87C202.686 49.7228 203.004 50.5369 203.475 51.2625C203.946 51.9881 204.56 52.6099 205.28 53.09C206.959 54.02 208.842 54.5203 210.761 54.5465C212.68 54.5727 214.576 54.1239 216.28 53.24C216.891 52.9122 217.404 52.4288 217.767 51.8387C218.131 51.2486 218.332 50.5729 218.35 49.88C218.349 49.3249 218.215 48.7781 217.962 48.2844C217.708 47.7907 217.341 47.3642 216.89 47.04C215.565 46.1405 214.054 45.5525 212.47 45.32L204.54 43.74C200.053 42.84 196.72 41.2867 194.54 39.08C193.452 37.9676 192.602 36.646 192.04 35.1953C191.478 33.7445 191.216 32.1949 191.27 30.64C191.204 27.9073 192.048 25.2302 193.67 23.03C195.424 20.7865 197.773 19.0816 200.45 18.11C203.723 16.8904 207.198 16.3033 210.69 16.38C216.483 16.38 221.047 17.6034 224.38 20.05C226 21.2135 227.356 22.7054 228.361 24.4285C229.366 26.1516 229.996 28.0671 230.21 30.05L218.57 30.77C218.378 29.7765 217.938 28.8477 217.29 28.07C216.591 27.2336 215.708 26.5697 214.71 26.13C213.507 25.6154 212.208 25.3663 210.9 25.4C209.15 25.3364 207.417 25.7661 205.9 26.64C205.299 26.9547 204.795 27.4273 204.443 28.007C204.09 28.5867 203.903 29.2516 203.9 29.93C203.896 30.4619 204.012 30.9879 204.239 31.4691C204.465 31.9503 204.797 32.3744 205.21 32.71C206.551 33.659 208.096 34.2821 209.72 34.53ZM179.27 22.17C177.318 20.2514 174.98 18.7718 172.41 17.83C169.697 16.8532 166.833 16.3656 163.95 16.39C159.836 16.2961 155.775 17.3338 152.21 19.39C148.887 21.3696 146.201 24.2604 144.47 27.72C142.658 31.6293 141.72 35.8863 141.72 40.195C141.72 44.5037 142.658 48.7607 144.47 52.67C146.21 56.1132 148.936 58.9607 152.3 60.85C156.033 62.8532 160.225 63.846 164.46 63.73C167.875 63.7956 171.27 63.2014 174.46 61.98C177.182 60.9377 179.616 59.2613 181.56 57.09C183.4 54.9895 184.662 52.4461 185.22 49.71L173.46 48.93C173.054 50.0362 172.401 51.035 171.55 51.85C170.697 52.6639 169.671 53.2756 168.55 53.64C167.298 54.0517 165.987 54.2544 164.67 54.24C162.744 54.289 160.839 53.8267 159.15 52.9C157.603 52.0051 156.352 50.6773 155.55 49.08C154.666 47.2486 154.231 45.233 154.28 43.2H185.49V39.71C185.573 36.2056 185.017 32.7153 183.85 29.41C182.871 26.6909 181.307 24.2196 179.27 22.17ZM154.27 35.27C154.329 33.6852 154.761 32.1367 155.53 30.75C156.353 29.2809 157.55 28.056 159 27.2C160.555 26.3021 162.325 25.8457 164.12 25.88C165.824 25.8429 167.508 26.2569 169 27.08C170.381 27.8708 171.522 29.0217 172.3 30.41C173.111 31.8994 173.521 33.5742 173.49 35.27H154.27ZM115.68 52.34L136.74 25.25V16.98H99.78V27.13H121.44V27.45L99 55.23V62.81H137.52V52.67H115.68V52.34ZM289.92 50.64L299.5 16.98L312.96 17.04L295.14 67.77C294.358 70.086 293.184 72.2507 291.67 74.17C290.185 76.0024 288.287 77.4557 286.13 78.41C283.579 79.4729 280.832 79.9841 278.07 79.91C276.555 79.9193 275.043 79.7955 273.55 79.54C272.367 79.3499 271.204 79.0452 270.08 78.63L272.94 69.11C274.759 69.7723 276.717 69.9616 278.63 69.66C280.17 69.33 281.39 68.14 282.28 66.07L283.03 64.13L266.59 16.98H279.95L289.44 50.64H289.92Z" fill="white"/>
</g>
<defs>
<linearGradient id="paint0_linear_291_4326" x1="8.23001" y1="63.1022" x2="79.97" y2="63.1022" gradientUnits="userSpaceOnUse">
<stop stop-color="#F26D21"/>
<stop offset="0.29" stop-color="#F37121"/>
<stop offset="0.59" stop-color="#F47E22"/>
<stop offset="0.89" stop-color="#F79223"/>
<stop offset="1" stop-color="#F89C24"/>
</linearGradient>
<linearGradient id="paint1_linear_291_4326" x1="39.85" y1="58.3322" x2="39.85" y2="35.4822" gradientUnits="userSpaceOnUse">
<stop stop-color="#DF2926"/>
<stop offset="0.07" stop-color="#E02E26"/>
<stop offset="0.29" stop-color="#E13B26"/>
<stop offset="0.5" stop-color="#E23F26"/>
<stop offset="0.71" stop-color="#E13B26"/>
<stop offset="0.93" stop-color="#E02E26"/>
<stop offset="1" stop-color="#DF2926"/>
</linearGradient>
<linearGradient id="paint2_linear_291_4326" x1="2.20001" y1="18.4922" x2="65.14" y2="18.4922" gradientUnits="userSpaceOnUse">
<stop stop-color="#F89C24"/>
<stop offset="0.11" stop-color="#F79223"/>
<stop offset="0.41" stop-color="#F47E22"/>
<stop offset="0.71" stop-color="#F37121"/>
<stop offset="1" stop-color="#F26D21"/>
</linearGradient>
<linearGradient id="paint3_linear_291_4326" x1="0.96" y1="54.9422" x2="45.11" y2="54.9422" gradientUnits="userSpaceOnUse">
<stop stop-color="#EF4B23"/>
<stop offset="0.34" stop-color="#EF4F23"/>
<stop offset="0.7" stop-color="#F15C22"/>
<stop offset="1" stop-color="#F26C21"/>
</linearGradient>
<linearGradient id="paint4_linear_291_4326" x1="30.95" y1="23.0322" x2="78.74" y2="23.0322" gradientUnits="userSpaceOnUse">
<stop stop-color="#F26C21"/>
<stop offset="0.3" stop-color="#F15C22"/>
<stop offset="0.66" stop-color="#EF4F23"/>
<stop offset="1" stop-color="#EF4B23"/>
</linearGradient>
<clipPath id="clip0_291_4326">
<rect width="80" height="80" fill="white"/>
</clipPath>
<clipPath id="clip1_291_4326">
<rect width="213.96" height="73.91" fill="white" transform="translate(99 6)"/>
</clipPath>
</defs>
</svg>
