<svg width="214" height="74" viewBox="0 0 214 74" fill="none" xmlns="http://www.w3.org/2000/svg">
<g clip-path="url(#clip0_291_4353)">
<path fill-rule="evenodd" clip-rule="evenodd" d="M160.43 47.04C159.84 47.1503 159.241 47.2072 158.64 47.21C157.869 47.2265 157.101 47.0941 156.38 46.82C155.737 46.5542 155.207 46.0735 154.88 45.46C154.477 44.6087 154.291 43.6707 154.34 42.73V20.53H162.96V10.98H154.34V-0.019989H141.63V10.98H135.36V20.53H141.63V44.41C141.512 47.0272 142.165 49.6215 143.51 51.87C144.794 53.847 146.665 55.3719 148.86 56.23C151.426 57.2042 154.17 57.6201 156.91 57.45C158.322 57.4203 159.729 57.2562 161.11 56.96C162.27 56.69 163.11 56.46 163.8 56.26L161.8 46.8L160.43 47.04ZM110.72 28.53L119.02 30.2C123.47 31.11 126.77 32.59 128.96 34.6C130.049 35.6202 130.905 36.8626 131.471 38.243C132.037 39.6233 132.299 41.1093 132.24 42.6C132.287 45.4605 131.356 48.2513 129.6 50.51C127.702 52.8793 125.211 54.7043 122.38 55.8C119.024 57.1249 115.438 57.7707 111.83 57.7C105.763 57.6933 100.937 56.4267 97.35 53.9C95.6205 52.7205 94.1628 51.1852 93.0746 49.3968C91.9864 47.6084 91.2927 45.6082 91.04 43.53L103.54 42.87C103.686 43.7228 104.004 44.5369 104.475 45.2625C104.946 45.9881 105.56 46.6099 106.28 47.09C107.959 48.02 109.842 48.5203 111.761 48.5465C113.68 48.5727 115.576 48.1239 117.28 47.24C117.891 46.9122 118.404 46.4288 118.767 45.8387C119.131 45.2486 119.332 44.5729 119.35 43.88C119.349 43.3249 119.215 42.7781 118.962 42.2844C118.708 41.7907 118.341 41.3642 117.89 41.04C116.565 40.1405 115.054 39.5525 113.47 39.32L105.54 37.74C101.053 36.84 97.72 35.2867 95.54 33.08C94.4524 31.9676 93.6018 30.646 93.0397 29.1953C92.4776 27.7445 92.2158 26.1949 92.27 24.64C92.2036 21.9073 93.0479 19.2302 94.67 17.03C96.4238 14.7865 98.7733 13.0816 101.45 12.11C104.723 10.8904 108.198 10.3033 111.69 10.38C117.483 10.38 122.047 11.6034 125.38 14.05C127 15.2135 128.356 16.7054 129.361 18.4285C130.366 20.1516 130.996 22.0671 131.21 24.05L119.57 24.77C119.378 23.7765 118.938 22.8477 118.29 22.07C117.591 21.2336 116.708 20.5697 115.71 20.13C114.507 19.6154 113.208 19.3663 111.9 19.4C110.15 19.3364 108.417 19.7661 106.9 20.64C106.299 20.9547 105.795 21.4273 105.443 22.007C105.09 22.5867 104.903 23.2516 104.9 23.93C104.896 24.4619 105.012 24.9879 105.239 25.4691C105.465 25.9503 105.797 26.3744 106.21 26.71C107.551 27.659 109.096 28.2821 110.72 28.53ZM80.27 16.17C78.3184 14.2514 75.9796 12.7718 73.41 11.83C70.6974 10.8532 67.833 10.3656 64.95 10.39C60.8358 10.2961 56.7748 11.3338 53.21 13.39C49.8867 15.3696 47.2006 18.2604 45.47 21.72C43.6584 25.6293 42.72 29.8863 42.72 34.195C42.72 38.5037 43.6584 42.7607 45.47 46.67C47.2105 50.1132 49.9361 52.9607 53.3 54.85C57.0331 56.8532 61.225 57.846 65.46 57.73C68.8749 57.7956 72.2703 57.2014 75.46 55.98C78.1818 54.9377 80.6158 53.2613 82.56 51.09C84.4001 48.9895 85.6615 46.4461 86.22 43.71L74.46 42.93C74.0542 44.0362 73.4009 45.035 72.55 45.85C71.6967 46.6639 70.6715 47.2756 69.55 47.64C68.2984 48.0517 66.9875 48.2544 65.67 48.24C63.7439 48.289 61.8392 47.8267 60.15 46.9C58.6031 46.0051 57.3517 44.6773 56.55 43.08C55.6659 41.2486 55.2306 39.233 55.28 37.2H86.49V33.71C86.5732 30.2056 86.0174 26.7153 84.85 23.41C83.8708 20.6909 82.3075 18.2196 80.27 16.17ZM55.27 29.27C55.329 27.6852 55.7606 26.1367 56.53 24.75C57.3528 23.2809 58.55 22.056 60 21.2C61.5547 20.3021 63.325 19.8457 65.12 19.88C66.824 19.8429 68.5075 20.2569 70 21.08C71.3812 21.8708 72.5218 23.0217 73.3 24.41C74.1114 25.8994 74.5215 27.5742 74.49 29.27H55.27ZM16.68 46.34L37.74 19.25V10.98H0.78V21.13H22.44V21.45L0 49.23V56.81H38.52V46.67H16.68V46.34ZM190.92 44.64L200.5 10.98L213.96 11.04L196.14 61.77C195.358 64.086 194.184 66.2507 192.67 68.17C191.185 70.0024 189.287 71.4557 187.13 72.41C184.579 73.4729 181.832 73.9841 179.07 73.91C177.555 73.9193 176.043 73.7955 174.55 73.54C173.367 73.3499 172.204 73.0452 171.08 72.63L173.94 63.11C175.759 63.7723 177.717 63.9616 179.63 63.66C181.17 63.33 182.39 62.14 183.28 60.07L184.03 58.13L167.59 10.98H180.95L190.44 44.64H190.92Z" fill="white"/>
</g>
<defs>
<clipPath id="clip0_291_4353">
<rect width="213.96" height="73.91" fill="white"/>
</clipPath>
</defs>
</svg>
