<svg width="80" height="80" viewBox="0 0 80 80" fill="none" xmlns="http://www.w3.org/2000/svg">
<g clip-path="url(#clip0_291_4360)">
<path d="M8.26001 63.6322C12.9313 69.9916 19.3791 74.8274 26.7921 77.531C34.2052 80.2347 42.2523 80.6854 49.9209 78.8265C57.5895 76.9676 64.537 72.8822 69.8892 67.0842C75.2414 61.2862 78.7592 54.0347 80 46.2422C69.0079 51.1897 57.1811 54.0192 45.14 54.5822L8.26001 63.6322Z" fill="url(#paint0_linear_291_4360)"/>
<path d="M49.26 32.8222L30.99 37.0322C21.6125 41.7078 11.5324 44.8157 1.15002 46.2322H1L21 58.3122L45.19 54.5622C57.5321 48.7372 68.5049 40.3714 77.39 30.0122C77.87 29.4422 78.39 28.8722 78.82 28.2922L49.26 32.8222Z" fill="url(#paint1_linear_291_4360)"/>
<path d="M2.20001 28.3222C11.1755 32.9477 20.9173 35.9025 30.95 37.0422L53.95 26.9622L65.1 8.49221C59.9857 4.49228 53.9746 1.79739 47.5859 0.640311C41.1971 -0.516766 34.6227 -0.101245 28.4305 1.85094C22.2382 3.80313 16.6142 7.2333 12.0442 11.8453C7.47418 16.4572 4.09553 22.1123 2.20001 28.3222Z" fill="url(#paint2_linear_291_4360)"/>
<path d="M44.51 54.6122C43.17 54.6122 41.82 54.6922 40.51 54.6922C26.8908 54.7094 13.4234 51.8326 1 46.2522C1.99568 52.5426 4.4853 58.5026 8.26001 63.6322C21.0328 63.0978 33.5707 60.0211 45.14 54.5822L44.51 54.6122Z" fill="url(#paint3_linear_291_4360)"/>
<path d="M50.49 24.0922C44.526 29.1826 37.9644 33.5279 30.95 37.0322C34.1108 37.3893 37.2891 37.5696 40.47 37.5722C41.64 37.5722 42.81 37.5722 43.98 37.5022C56.0971 37.0114 67.9606 33.8783 78.74 28.3222C76.3478 20.4738 71.5998 13.5509 65.14 8.49222C60.846 14.2158 55.9329 19.4475 50.49 24.0922Z" fill="url(#paint4_linear_291_4360)"/>
</g>
<defs>
<linearGradient id="paint0_linear_291_4360" x1="8.23001" y1="63.1022" x2="79.97" y2="63.1022" gradientUnits="userSpaceOnUse">
<stop stop-color="#F26D21"/>
<stop offset="0.29" stop-color="#F37121"/>
<stop offset="0.59" stop-color="#F47E22"/>
<stop offset="0.89" stop-color="#F79223"/>
<stop offset="1" stop-color="#F89C24"/>
</linearGradient>
<linearGradient id="paint1_linear_291_4360" x1="39.85" y1="58.3322" x2="39.85" y2="35.4822" gradientUnits="userSpaceOnUse">
<stop stop-color="#DF2926"/>
<stop offset="0.07" stop-color="#E02E26"/>
<stop offset="0.29" stop-color="#E13B26"/>
<stop offset="0.5" stop-color="#E23F26"/>
<stop offset="0.71" stop-color="#E13B26"/>
<stop offset="0.93" stop-color="#E02E26"/>
<stop offset="1" stop-color="#DF2926"/>
</linearGradient>
<linearGradient id="paint2_linear_291_4360" x1="2.20001" y1="18.4922" x2="65.14" y2="18.4922" gradientUnits="userSpaceOnUse">
<stop stop-color="#F89C24"/>
<stop offset="0.11" stop-color="#F79223"/>
<stop offset="0.41" stop-color="#F47E22"/>
<stop offset="0.71" stop-color="#F37121"/>
<stop offset="1" stop-color="#F26D21"/>
</linearGradient>
<linearGradient id="paint3_linear_291_4360" x1="0.96" y1="54.9422" x2="45.11" y2="54.9422" gradientUnits="userSpaceOnUse">
<stop stop-color="#EF4B23"/>
<stop offset="0.34" stop-color="#EF4F23"/>
<stop offset="0.7" stop-color="#F15C22"/>
<stop offset="1" stop-color="#F26C21"/>
</linearGradient>
<linearGradient id="paint4_linear_291_4360" x1="30.95" y1="23.0322" x2="78.74" y2="23.0322" gradientUnits="userSpaceOnUse">
<stop stop-color="#F26C21"/>
<stop offset="0.3" stop-color="#F15C22"/>
<stop offset="0.66" stop-color="#EF4F23"/>
<stop offset="1" stop-color="#EF4B23"/>
</linearGradient>
<clipPath id="clip0_291_4360">
<rect width="80" height="80" fill="white"/>
</clipPath>
</defs>
</svg>
